<?xml version="1.0" standalone="no"?>
<!DOCTYPE svg PUBLIC "-//W3C//DTD SVG 1.1//EN" "http://www.w3.org/Graphics/SVG/1.1/DTD/svg11.dtd">
<!--Generator: Xara Designer (www.xara.com), SVG filter version: 6.1.0.18-->
<svg stroke-width="0.501" stroke-linejoin="bevel" fill-rule="evenodd" xmlns:xlink="http://www.w3.org/1999/xlink" xmlns="http://www.w3.org/2000/svg" version="1.1" overflow="visible" width="142.5pt" height="52.5pt" viewBox="0 0 142.5 52.5">
 <defs>
	</defs>
 <g id="Document" fill="none" stroke="black" font-family="Times New Roman" font-size="16" transform="scale(1 -1)">
  <g id="Spread" transform="translate(0 -52.5)">
   <g id="Layer 1">
    <path d="M 6.005,7.22 C 18.971,22.97 34.457,33.103 51.751,39.21 C 38.15,29.211 32.606,19.671 33.451,10.499 C 27.68,16.982 18.574,15.985 6.005,7.22 Z" stroke="none" fill="#008ed2" stroke-width="0.078" marker-start="none" marker-end="none" stroke-miterlimit="79.8403193612775"/>
    <path d="M 8.463,12.644 C 16.847,24.024 25.367,35.404 34.083,46.78 C 32.837,41.439 31.619,36.097 30.74,30.752 C 23.403,27.175 15.963,20.733 8.463,12.644 Z" stroke="none" fill="#00476c" stroke-width="0.337" marker-start="none" marker-end="none" stroke-miterlimit="79.8403193612775"/>
    <path d="M 69.122,10.006 C 67.381,11.783 66.509,14.245 66.509,17.393 C 66.509,20.198 67.356,22.468 69.049,24.203 C 70.743,25.938 72.95,26.805 75.672,26.805 C 78.357,26.805 80.446,25.97 81.936,24.3 C 83.427,22.631 84.174,20.287 84.174,17.269 L 84.174,15.772 L 71.145,15.772 C 71.274,14.216 71.878,12.988 72.953,12.091 C 74.028,11.194 75.446,10.746 77.204,10.746 C 78.167,10.746 79.102,10.858 80.011,11.085 C 80.919,11.31 81.797,11.649 82.641,12.101 L 82.641,8.446 C 81.737,8.078 80.763,7.802 79.716,7.618 C 78.671,7.433 77.555,7.342 76.367,7.342 C 73.277,7.342 70.862,8.23 69.122,10.006 Z M 121.451,8.972 C 120.31,10.059 119.74,11.464 119.74,13.188 C 119.74,15.242 120.553,16.784 122.182,17.813 C 123.811,18.841 126.244,19.354 129.49,19.354 L 131.931,19.354 L 131.931,19.622 C 131.931,20.882 131.534,21.858 130.737,22.553 C 129.941,23.248 128.819,23.597 127.368,23.597 C 126.548,23.597 125.696,23.472 124.81,23.222 C 123.925,22.973 123.014,22.599 122.075,22.1 L 122.003,25.485 C 123.108,25.937 124.195,26.27 125.265,26.484 C 126.334,26.698 127.41,26.805 128.491,26.805 C 131.272,26.805 133.301,26.13 134.578,24.783 C 135.856,23.433 136.495,21.298 136.495,18.374 L 136.495,7.822 L 132.288,7.822 L 132.216,10.817 C 131.444,9.678 130.53,8.813 129.471,8.224 C 128.414,7.635 127.237,7.342 125.943,7.342 C 124.088,7.342 122.591,7.885 121.451,8.972 Z M 110.838,9.035 C 109.886,10.116 109.411,11.916 109.411,14.435 L 109.411,22.83 L 105.757,22.83 L 105.757,26.324 L 109.625,26.324 L 109.625,30.814 L 114.187,32.349 L 114.187,26.324 L 118.643,26.324 L 118.643,22.83 L 114.187,22.83 L 114.187,14.719 C 114.187,13.342 114.402,12.353 114.83,11.752 C 115.258,11.153 115.959,10.852 116.932,10.853 C 117.183,10.852 117.462,10.879 117.771,10.933 C 118.08,10.986 118.406,11.066 118.751,11.173 L 118.822,7.84 C 118.299,7.698 117.759,7.591 117.201,7.519 C 116.642,7.448 116.09,7.412 115.542,7.412 C 113.357,7.412 111.789,7.953 110.838,9.035 Z M 46.787,7.822 L 46.787,33.15 L 51.779,33.15 L 51.779,22.1 L 61.1,33.15 L 66.821,33.15 L 56.376,21.403 L 67.802,7.822 L 61.492,7.822 L 51.779,19.943 L 51.779,7.822 L 46.787,7.822 Z M 86.516,7.822 L 86.516,26.324 L 90.847,26.324 L 90.847,22.973 C 91.549,24.232 92.455,25.186 93.566,25.834 C 94.677,26.481 95.963,26.805 97.425,26.805 C 99.6,26.805 101.245,26.13 102.363,24.783 C 103.479,23.433 104.038,21.452 104.038,18.838 L 104.038,7.822 L 99.242,7.822 L 99.242,17.822 C 99.242,19.533 98.948,20.795 98.36,21.61 C 97.773,22.422 96.854,22.83 95.606,22.83 C 94.276,22.83 93.218,22.31 92.433,21.271 C 91.65,20.231 91.258,18.813 91.258,17.02 L 91.258,7.822 L 86.516,7.822 Z M 130.665,12.091 C 131.509,13.013 131.931,14.204 131.931,15.665 L 131.931,16.663 L 130.256,16.663 C 128.319,16.663 126.86,16.392 125.881,15.852 C 124.9,15.311 124.409,14.507 124.409,13.436 C 124.409,12.63 124.688,11.972 125.246,11.466 C 125.806,10.963 126.538,10.709 127.44,10.709 C 128.747,10.709 129.823,11.17 130.665,12.091 Z M 78.559,22.394 C 77.809,23.266 76.836,23.704 75.635,23.704 C 74.412,23.704 73.402,23.266 72.606,22.394 C 71.809,21.52 71.321,20.299 71.145,18.731 L 79.878,18.731 C 79.747,20.299 79.307,21.52 78.559,22.394 Z" stroke="none" fill="#00476c" stroke-width="0.337" fill-rule="nonzero" marker-start="none" marker-end="none" stroke-miterlimit="79.8403193612775"/>
   </g>
  </g>
 </g>
</svg>
